<svg width="64" height="64" viewBox="0 0 512 512" xmlns="http://www.w3.org/2000/svg">
    <defs>
        <linearGradient id="logoGradient" x1="0%" y1="0%" x2="100%" y2="100%">
            <stop offset="0%" style="stop-color:#d97706;stop-opacity:1" />
            <stop offset="100%" style="stop-color:#f59e0b;stop-opacity:1" />
        </linearGradient>
    </defs>
    <rect width="512" height="512" rx="96" fill="url(#logoGradient)"/>
    <g transform="translate(64, 64) scale(0.75)">
        <path d="M256 48c-8.8 0-16 7.2-16 16v16c-106 0-192 86-192 192v32c-35.3 0-64 28.7-64 64v32c0 35.3 28.7 64 64 64v16c0 53 43 96 96 96h192c53 0 96-43 96-96v-16c35.3 0 64-28.7 64-64v-32c0-35.3-28.7-64-64-64v-32c0-106-86-192-192-192V64c0-8.8-7.2-16-16-16zM256 160c17.7 0 32 14.3 32 32s-14.3 32-32 32s-32-14.3-32-32s14.3-32 32-32z" fill="white"/>
    </g>
</svg>
